<?xml version="1.0" standalone="no"?><!-- Generator: Gravit.io --><svg xmlns="http://www.w3.org/2000/svg" xmlns:xlink="http://www.w3.org/1999/xlink" style="isolation:isolate" viewBox="0 0 60 60" width="60" height="60"><defs><clipPath id="_clipPath_NYllH7jE4GFQBOJ4dEEveMXbCnh7FSr8"><rect width="60" height="60"/></clipPath></defs><g clip-path="url(#_clipPath_NYllH7jE4GFQBOJ4dEEveMXbCnh7FSr8)"><path d=" M 47.445 39.584 L 47.445 39.625 L 46.844 39.625 L 44.437 39.625 C 43.552 39.625 42.833 38.907 42.833 38.02 C 42.833 37.135 43.552 36.417 44.437 36.417 L 46.844 36.417 C 47.729 36.417 48.447 35.698 48.447 34.812 C 48.447 33.927 47.729 33.209 46.844 33.209 C 45.958 33.209 45.239 32.49 45.239 31.604 C 45.239 30.718 45.958 30 46.844 30 C 46.955 30 47.062 30.011 47.166 30.033 C 49.671 30.202 51.656 32.265 51.656 34.812 C 51.656 37.265 49.818 39.286 47.445 39.584 Z  M 38.823 30 C 37.937 30 37.218 29.281 37.218 28.396 C 37.218 27.51 37.937 26.791 38.823 26.791 C 38.934 26.791 39.041 26.802 39.146 26.824 C 41.65 26.993 43.635 29.057 43.635 31.604 C 43.635 34.058 41.797 36.078 39.424 36.375 L 39.424 36.417 L 38.823 36.417 L 32.417 36.417 C 29.199 36.417 23.306 36.417 21.177 36.417 C 20.292 36.417 19.573 37.135 19.573 38.02 C 19.573 38.907 20.292 39.625 21.177 39.625 L 38.823 39.625 L 39.424 39.625 L 39.424 39.667 C 41.797 39.963 43.635 41.985 43.635 44.438 C 43.635 46.985 41.65 49.048 39.146 49.217 C 39.041 49.238 38.933 49.25 38.823 49.25 C 37.937 49.25 37.218 48.531 37.218 47.646 C 37.218 46.76 37.937 46.042 38.823 46.042 C 39.708 46.042 40.427 45.323 40.427 44.438 C 40.427 43.551 39.708 42.833 38.823 42.833 L 21.177 42.833 L 20.576 42.833 L 20.576 42.792 C 18.202 42.495 16.364 40.473 16.364 38.02 C 16.364 37.174 16.6 36.39 16.984 35.702 C 11.958 33.963 8.344 29.201 8.344 23.583 C 8.344 16.496 14.089 10.75 21.177 10.75 C 25.993 10.75 30.185 13.407 32.38 17.331 C 32.912 17.24 33.451 17.167 34.011 17.167 C 38.74 17.167 42.664 20.581 43.475 25.078 C 42.356 24.28 41.028 23.757 39.585 23.622 C 38.48 21.684 36.399 20.375 34.011 20.375 C 32.726 20.375 31.537 20.76 30.534 21.41 C 29.546 17.146 25.742 13.958 21.177 13.958 C 15.861 13.958 11.552 18.267 11.552 23.583 C 11.552 28.899 15.861 33.209 21.177 33.209 C 23.261 33.209 27.717 33.209 30.963 33.209 L 38.823 33.209 C 39.708 33.209 40.427 32.49 40.427 31.604 C 40.427 30.717 39.709 30 38.823 30 Z " fill-rule="evenodd" fill="rgb(87,160,238)" vector-effect="non-scaling-stroke" stroke-width="0.802" stroke="rgb(255,255,255)" stroke-linejoin="miter" stroke-linecap="butt" stroke-miterlimit="4"/></g></svg>